<?xml version="1.0" encoding="UTF-8"?>
<level>
  <owner>Fistachka</owner>
  <repo>cheburashka3</repo>
  <version>v1.0.1</version>
  <next number="1" owner="Fistachka" repo="cheburashka2"/>
  <readme>
    <ru>db3723fd8cdc98fb17e011b0269697f95b85aa17b5084004a28fd20f93ad8e8f</ru>
    <en>3994d8f47456fbde359ff6f94e49d7bb17a07c9bfbac00038f1b89812609257e</en>
  </readme>
  <license>b1b99f5538d1fd3702219bff50c665196dfa42f6ee755c37fe41a6178d6bc6e5</license>
  <exercise number="1">
    <scale>minor</scale>
    <bpm>96</bpm>
    <lowestNote>18</lowestNote>
    <tonalities>10</tonalities>
    <video name="1t.mp4" size="680917" type="video/mp4" volume="0.5">bc2a84d9c473ed2d85c0115d08764b41b4b8e14bfdd1bd9b7f08c7a78ca3a57f</video>
    <notes>
      <note number="1" values="58" ticks="107" durationTicks="49" ppq="96" velocity="0.843"/>
      <note number="2" values="68" ticks="157" durationTicks="46" ppq="96" velocity="0.906"/>
      <note number="3" values="58" ticks="203" durationTicks="48" ppq="96" velocity="0.843"/>
      <note number="4" values="38" ticks="252" durationTicks="48" ppq="96" velocity="0.906"/>
      <note number="5" values="18" ticks="299" durationTicks="50" ppq="96" velocity="0.906"/>
      <note number="6" values="38" ticks="351" durationTicks="76" ppq="96" velocity="0.906"/>
      <note number="7" values="28" ticks="432" durationTicks="91" ppq="96" velocity="0.906"/>
    </notes>
  </exercise>
  <exercise number="2">
    <scale>minor</scale>
    <bpm>96</bpm>
    <lowestNote>18</lowestNote>
    <tonalities>10</tonalities>
    <video name="2t.mp4" size="615071" type="video/mp4" volume="0.5">4fc0480ba79cb162704d3883d524f6b594b0bd1cb4ea7b7694e91eea3632f2af</video>
    <notes>
      <note number="1" values="48" ticks="11" durationTicks="49" ppq="96" velocity="0.843"/>
      <note number="2" values="58" ticks="61" durationTicks="46" ppq="96" velocity="0.906"/>
      <note number="3" values="48" ticks="107" durationTicks="48" ppq="96" velocity="0.843"/>
      <note number="4" values="28" ticks="210" durationTicks="31" ppq="96" velocity="0.906"/>
      <note number="5" values="48" ticks="242" durationTicks="34" ppq="96" velocity="0.906"/>
      <note number="6" values="68" ticks="281" durationTicks="61" ppq="96" velocity="0.906"/>
      <note number="7" values="58" ticks="335" durationTicks="103" ppq="96" velocity="0.906"/>
    </notes>
  </exercise>
  <exercise number="3">
    <scale>minor</scale>
    <bpm>96</bpm>
    <lowestNote>18</lowestNote>
    <tonalities>10</tonalities>
    <video name="3t.mp4" size="708603" type="video/mp4" volume="0.5">e06d598c543f1019584ff62c3c2eb7bbc817f69f0c1614585586cdd35c1bc890</video>
    <notes>
      <note number="1" values="78" ticks="27" durationTicks="49" ppq="96" velocity="0.843"/>
      <note number="2" values="188" ticks="77" durationTicks="46" ppq="96" velocity="0.906"/>
      <note number="3" values="78" ticks="123" durationTicks="48" ppq="96" velocity="0.843"/>
      <note number="4" values="58" ticks="172" durationTicks="48" ppq="96" velocity="0.906"/>
      <note number="5" values="38" ticks="220" durationTicks="48" ppq="96" velocity="0.906"/>
      <note number="6" values="58" ticks="270" durationTicks="57" ppq="96" velocity="0.906"/>
      <note number="7" values="48" ticks="317" durationTicks="103" ppq="96" velocity="0.906"/>
    </notes>
  </exercise>
  <exercise number="4">
    <scale>minor</scale>
    <bpm>96</bpm>
    <lowestNote>18</lowestNote>
    <tonalities>10</tonalities>
    <video name="4t.mp4" size="881545" type="video/mp4" volume="0.5">4dc57b59a3d127f3aed121f8e44b41915b8d8b3e42de52e6295e449731b801ec</video>
    <notes>
      <note number="1" values="48" ticks="39" durationTicks="49" ppq="96" velocity="0.843"/>
      <note number="2" values="58" ticks="89" durationTicks="46" ppq="96" velocity="0.906"/>
      <note number="3" values="48" ticks="135" durationTicks="48" ppq="96" velocity="0.843"/>
      <note number="4" values="58" ticks="184" durationTicks="48" ppq="96" velocity="0.906"/>
      <note number="5" values="68" ticks="232" durationTicks="48" ppq="96" velocity="0.906"/>
      <note number="6" values="78" ticks="282" durationTicks="90" ppq="96" velocity="0.906"/>
    </notes>
  </exercise>
  <exercise number="5">
    <scale>minor</scale>
    <bpm>96</bpm>
    <lowestNote>18</lowestNote>
    <tonalities>10</tonalities>
    <video name="5t.mp4" size="1141049" type="video/mp4" volume="0.5">af9ffa9579a6f2e3000f6cafee073b916d8322f42f798a6bb3cee689e3329554</video>
    <notes>
      <note number="1" values="58" ticks="81" durationTicks="49" ppq="96" velocity="0.843"/>
      <note number="2" values="188" ticks="131" durationTicks="46" ppq="96" velocity="0.906"/>
      <note number="3" values="188" ticks="187" durationTicks="35" ppq="96" velocity="0.843"/>
      <note number="4" values="58" ticks="276" durationTicks="24" ppq="96" velocity="0.906"/>
      <note number="5" values="78" ticks="303" durationTicks="24" ppq="96" velocity="0.906"/>
      <note number="6" values="68" ticks="328" durationTicks="27" ppq="96" velocity="0.906"/>
      <note number="7" values="68" ticks="375" durationTicks="103" ppq="96" velocity="0.906"/>
    </notes>
  </exercise>
  <exercise number="6">
    <scale>minor</scale>
    <bpm>96</bpm>
    <lowestNote>18</lowestNote>
    <tonalities>10</tonalities>
    <video name="6t.mp4" size="1430314" type="video/mp4" volume="0.5">81858f5edb8be652fe34affb5a342c2ed4e1a19582d2e686e3e318a68e15907e</video>
    <notes>
      <note number="1" values="48" ticks="65" durationTicks="49" ppq="96" velocity="0.843"/>
      <note number="2" values="78" ticks="115" durationTicks="38" ppq="96" velocity="0.906"/>
      <note number="3" values="78" ticks="161" durationTicks="48" ppq="96" velocity="0.843"/>
      <note number="4" values="48" ticks="210" durationTicks="48" ppq="96" velocity="0.906"/>
      <note number="5" values="68" ticks="258" durationTicks="48" ppq="96" velocity="0.906"/>
      <note number="6" values="58" ticks="307" durationTicks="28" ppq="96" velocity="0.906"/>
      <note number="7" values="58" ticks="353" durationTicks="103" ppq="96" velocity="0.906"/>
    </notes>
  </exercise>
  <exercise number="7">
    <scale>minor</scale>
    <bpm>96</bpm>
    <lowestNote>18</lowestNote>
    <tonalities>10</tonalities>
    <video name="7t.mp4" size="1378482" type="video/mp4" volume="0.5">0622f53a57f682340dc655019dc0d540f3e6606563690c83d36e61dd025bbd8b</video>
    <notes>
      <note number="1" values="78" ticks="23" durationTicks="49" ppq="96" velocity="0.843"/>
      <note number="2" values="68" ticks="73" durationTicks="46" ppq="96" velocity="0.906"/>
      <note number="3" values="48" ticks="119" durationTicks="48" ppq="96" velocity="0.843"/>
      <note number="4" values="58" ticks="255" durationTicks="48" ppq="96" velocity="0.906"/>
      <note number="5" values="38" ticks="305" durationTicks="48" ppq="96" velocity="0.906"/>
    </notes>
  </exercise>
  <exercise number="8">
    <scale>minor</scale>
    <bpm>96</bpm>
    <lowestNote>18</lowestNote>
    <tonalities>10</tonalities>
    <video name="8t.mp4" size="1172344" type="video/mp4" volume="0.5">3a470bc5a123c3a0b61f7d56117565de016b8f23eebbbae53b862ae675c55f73</video>
    <notes>
      <note number="1" values="58" ticks="103" durationTicks="49" ppq="96" velocity="0.843"/>
      <note number="2" values="48" ticks="153" durationTicks="46" ppq="96" velocity="0.906"/>
      <note number="3" values="28" ticks="199" durationTicks="48" ppq="96" velocity="0.843"/>
      <note number="4" values="38" ticks="248" durationTicks="48" ppq="96" velocity="0.906"/>
      <note number="5" values="18" ticks="296" durationTicks="48" ppq="96" velocity="0.906"/>
    </notes>
  </exercise>
  <exercise number="9">
    <scale>minor</scale>
    <bpm>96</bpm>
    <lowestNote>18</lowestNote>
    <tonalities>10</tonalities>
    <video name="9t.mp4" size="1095037" type="video/mp4" volume="0.5">ac96ce3da5c1ecab9c880fec0484cf49eeb4c847d14ed4124b7ee7e4e6db08d2</video>
    <notes>
      <note number="1" values="58" ticks="67" durationTicks="49" ppq="96" velocity="0.843"/>
      <note number="2" values="188" ticks="117" durationTicks="46" ppq="96" velocity="0.906"/>
      <note number="3" values="188" ticks="164" durationTicks="44" ppq="96" velocity="0.843"/>
      <note number="4" values="58" ticks="259" durationTicks="25" ppq="96" velocity="0.906"/>
      <note number="5" values="78" ticks="283" durationTicks="29" ppq="96" velocity="0.906"/>
      <note number="6" values="68" ticks="320" durationTicks="28" ppq="96" velocity="0.906"/>
      <note number="7" values="68" ticks="361" durationTicks="103" ppq="96" velocity="0.906"/>
    </notes>
  </exercise>
  <exercise number="10">
    <scale>minor</scale>
    <bpm>96</bpm>
    <lowestNote>18</lowestNote>
    <tonalities>10</tonalities>
    <video name="10t.mp4" size="894564" type="video/mp4" volume="0.5">789e91ad51569765f6478ea1c66f3912d04cb4a86c69a818b50d3e8d5ef4a78a</video>
    <notes>
      <note number="1" values="48" ticks="49" durationTicks="49" ppq="96" velocity="0.843"/>
      <note number="2" values="78" ticks="99" durationTicks="38" ppq="96" velocity="0.906"/>
      <note number="3" values="78" ticks="145" durationTicks="48" ppq="96" velocity="0.843"/>
      <note number="4" values="48" ticks="194" durationTicks="48" ppq="96" velocity="0.906"/>
      <note number="5" values="68" ticks="242" durationTicks="48" ppq="96" velocity="0.906"/>
      <note number="6" values="58" ticks="291" durationTicks="28" ppq="96" velocity="0.906"/>
      <note number="7" values="58" ticks="337" durationTicks="103" ppq="96" velocity="0.906"/>
    </notes>
  </exercise>
  <exercise number="11">
    <scale>minor</scale>
    <bpm>96</bpm>
    <lowestNote>18</lowestNote>
    <tonalities>10</tonalities>
    <video name="11t.mp4" size="962580" type="video/mp4" volume="0.5">4391cd632a517c0ca53787eef5a8c39f435c8c15369714925f11d39e840bf4cf</video>
    <notes>
      <note number="1" values="78" ticks="71" durationTicks="49" ppq="96" velocity="0.843"/>
      <note number="2" values="68" ticks="121" durationTicks="46" ppq="96" velocity="0.906"/>
      <note number="3" values="48" ticks="167" durationTicks="48" ppq="96" velocity="0.843"/>
      <note number="4" values="58" ticks="312" durationTicks="48" ppq="96" velocity="0.906"/>
      <note number="5" values="38" ticks="361" durationTicks="48" ppq="96" velocity="0.906"/>
    </notes>
  </exercise>
  <exercise number="12">
    <scale>minor</scale>
    <bpm>96</bpm>
    <lowestNote>18</lowestNote>
    <tonalities>10</tonalities>
    <video name="12t.mp4" size="1138440" type="video/mp4" volume="0.5">61333ab7a7060585ca7d4dcda81724d1113ce29c8f04726bfe004f660e33afc0</video>
    <notes>
      <note number="1" values="58" ticks="119" durationTicks="49" ppq="96" velocity="0.843"/>
      <note number="2" values="48" ticks="169" durationTicks="46" ppq="96" velocity="0.906"/>
      <note number="3" values="28" ticks="215" durationTicks="48" ppq="96" velocity="0.843"/>
      <note number="4" values="38" ticks="264" durationTicks="48" ppq="96" velocity="0.906"/>
      <note number="5" values="18" ticks="312" durationTicks="48" ppq="96" velocity="0.906"/>
    </notes>
  </exercise>
</level>
